<svg xmlns="http://www.w3.org/2000/svg" viewBox="0 0 48 48">
  <rect width="48" height="48" rx="10" fill="#F8F2E4"/>
  <path
    d="M24 10c1.8 2.8-0.6 4.2-0.6 6.6 0 1.8 1.4 3 3 3s3-1.2 3-3c1.8 1.8 2.6 4.4 2.6 6.6 0 3.9-3.3 7-7.4 7s-7.4-3.1-7.4-7c0-4.6 3.5-6.6 6.8-13.2z"
    fill="#6B1F24" fill-opacity="0.15" stroke="#6B1F24" stroke-width="1.4" stroke-linejoin="round"
  />
  <text x="24" y="35" text-anchor="middle" font-size="13" font-family="'Noto Sans Devanagari', sans-serif" fill="#6B1F24">ॐ</text>
  <path d="M11 33c4-1 6.5-3 8-6" fill="none" stroke="#B08D57" stroke-width="1.2" stroke-linecap="round"/>
  <path d="M37 33c-4-1-6.5-3-8-6" fill="none" stroke="#B08D57" stroke-width="1.2" stroke-linecap="round"/>
</svg>
